<svg xmlns="http://www.w3.org/2000/svg" width="24" height="24" viewBox="0 0 24 24">
  <g id="saudi" transform="translate(-686 -270)">
    <path id="Path_8138" data-name="Path 8138" d="M12,0A12,12,0,1,1,0,12,12,12,0,0,1,12,0Z" transform="translate(686 270)" fill="#096"/>
    <g id="Group_6087" data-name="Group 6087" transform="translate(688.65 276.935)">
      <g id="Group_4859" data-name="Group 4859">
        <g id="saudi-arabia" transform="translate(0 0)">
          <path id="Path_3690" data-name="Path 3690" d="M156.609,151.723a.471.471,0,0,0,.091.589c-.045.045-.091.136-.136.181l.227.181c.045-.091.136-.136.181-.227.181.045.226-.091.136-.226a2.208,2.208,0,0,1,.136-.317C157.333,151.315,156.79,151.27,156.609,151.723Zm.362.136a.343.343,0,0,1-.091.181c-.091-.045-.091-.136-.045-.226C156.88,151.678,156.971,151.768,156.971,151.859Z" transform="translate(-151.356 -150.983)" fill="#cfe7e8"/>
          <path id="Path_3695" data-name="Path 3695" d="M253.246,266.8a2.364,2.364,0,0,0,.544-.317c.181-.181.045-.136-.091-.091a4.7,4.7,0,0,1-.453.181c-.181.091-.226,0-.136-.317.091-.272,0-.272-.136-.226s-.181.136-.317.226c-.091.045-.091.136.136.045.181-.091.136,0,.091.226C252.793,266.751,252.929,266.887,253.246,266.8Z" transform="translate(-242.63 -259.828)" fill="#fff"/>
          <g id="Group_6087-2" data-name="Group 6087" transform="translate(0 0)">
            <g id="Group_1767" data-name="Group 1767" transform="translate(0 0.094)">
              <path id="Path_3681" data-name="Path 3681" d="M57.781,150.571c.181-.136.181.226,0,.634a1.113,1.113,0,0,0,.226-.679c-.045-.317-.226-.272-.362-.091C57.555,150.571,57.6,150.662,57.781,150.571Z" transform="translate(-56.989 -150.264)" fill="#fff"/>
              <path id="Path_3682" data-name="Path 3682" d="M47.647,152.66c.226-.408.136-.725.317-1.314.136-.362.136-.091.136.136-.091.589-.045,1.54.77,1.495.045.544.181,1.495.181,1.857,0,.317.045.226.136.045a1.608,1.608,0,0,0,.045-.679c0-.272-.045-.77-.091-1.449a1.693,1.693,0,0,0,.272-.317c.091-.226.136-.181.181,0,.091.362.453.589.906.226.453-.317.272-.951.045-1.631.181.045.226-.091.136-.272-.045-.091-.136-.181-.181-.272-.091-.091-.136-.181-.226-.091s-.136.181-.181.227-.045.136,0,.272a5.272,5.272,0,0,1,.317,1.087c.045.226-.045.272-.226.272-.136,0-.362-.045-.453-.408a1.618,1.618,0,0,1-.091-.77.823.823,0,0,0-.136-.634c-.181-.226-.181-.181-.226-.091a1.02,1.02,0,0,0-.045.544c.091.317.136.589.181.77a.594.594,0,0,1-.317.544c-.045-.453-.091-1-.136-1.495.272-.091.136-.408-.091-.77-.136-.272-.226-.181-.317,0a.337.337,0,0,0,.045.408c-.045.136.045.317.091.634a8.848,8.848,0,0,1,.091,1.314.484.484,0,0,1-.408-.317,1.274,1.274,0,0,1-.045-.906c.091-.226.136-.544,0-.634s-.272,0-.362.181a1.916,1.916,0,0,0-.362,1.042,1.4,1.4,0,0,1-.136.589c-.045.136-.181.136-.272-.045a3.3,3.3,0,0,1-.226-1.359c0-.181-.045-.226-.091,0a2.941,2.941,0,0,0,.181,1.767C47.284,153.022,47.511,152.932,47.647,152.66Z" transform="translate(-46.809 -149.771)" fill="#fff"/>
              <path id="Path_3683" data-name="Path 3683" d="M92.9,150.953c.091-.091.091-.091.136,0a.128.128,0,0,0,.226,0,.278.278,0,0,0,.045-.272c-.045-.091-.045-.045-.091.045-.045.181-.226.136-.226-.091s-.045-.091-.136.045c-.091.226-.226.181-.226-.045,0-.136-.045-.272-.136-.091a.481.481,0,0,0,.045.362C92.669,151.043,92.8,151.043,92.9,150.953Z" transform="translate(-89.883 -150.419)" fill="#fff"/>
              <path id="Path_3684" data-name="Path 3684" d="M51.9,213.62c.136-.045.136-.045.136-.226s-.091-.091-.272-.045a2.884,2.884,0,0,0-1.223.861c-.181.226-.045.136.091.045A4.744,4.744,0,0,1,51.9,213.62Z" transform="translate(-50.251 -209.689)" fill="#fff"/>
              <path id="Path_3685" data-name="Path 3685" d="M52.333,248.033c-.136.226-.408-.091-.226-.679a1.152,1.152,0,0,0,.091-.317v-.317c0-.091-.091.045-.136.226a2.852,2.852,0,0,0-.181,1.268c.045.5.634.5.679-.136C52.559,247.807,52.469,247.807,52.333,248.033Z" transform="translate(-51.586 -241.203)" fill="#fff"/>
              <path id="Path_3686" data-name="Path 3686" d="M69.778,158.094c0-.226-.045-.453-.045-.679.045,0,.045-.045.091-.045.136.408.725.317.906.045.091-.136.091-.136.181,0,.136.181.589.272.679,0a1.363,1.363,0,0,0,.045-.725c-.045-.227-.091-.181-.226-.091s-.045.136,0,.272c.045.544-.408.5-.453-.045-.045-.362-.091-.227-.136-.045-.226.679-.815.815-.725,0,0-.226-.136-.136-.226-.045l-.181.181c-.045-.634-.091-1.359-.181-2.265.181.226.362-.045.226-.272-.091-.181-.226-.634-.317-.861s-.136-.181-.317.045c-.181.181-.136.226-.091.453a4.654,4.654,0,0,0,.091,1c.045.362.136,1.132.226,2.084-.091.045-.226.136-.317.181-.045-.181-.181-.272-.362-.453-.272-.272-.453-.272-.679.045a.792.792,0,0,0-.181.679c0,.272-.045.362.181.453a.519.519,0,0,0,.453,0,2.1,2.1,0,0,1,.408-.136.434.434,0,0,1-.091.408c-.544.634-1.359,1.132-1.721.679a1.437,1.437,0,0,1-.226-1.042c.045-.362-.045-.181-.091-.091a2,2,0,0,0,0,1.359c.226.453.634.634,1.268.317a1.742,1.742,0,0,0,1.223-1.45v-.317a.991.991,0,0,0,.226-.136v.77a1.19,1.19,0,0,1-.544,1.178,2.808,2.808,0,0,1-1.314.544c-1,.136-1.223-.5-1.223-1.359,0-.136.045-.227.045-.408,0-.362-.045-.317-.181.045a2.964,2.964,0,0,0,.091,1.857c.362.679,1.54.5,2.446.045A1.971,1.971,0,0,0,69.778,158.094Zm-1.268-.679c-.226.091-.317-.045-.272-.181,0-.136.045-.226.226-.136a.769.769,0,0,1,.272.272A.606.606,0,0,1,68.51,157.415Z" transform="translate(-65 -153.166)" fill="#fff"/>
              <path id="Path_3687" data-name="Path 3687" d="M144.879,235.86a.864.864,0,0,0,.091-.589c-.045-.136,0-.181-.136-.272-.136-.045-.181.045-.227.136-.045.136.045.317.227.226a.817.817,0,0,1-.045.453C144.744,236,144.789,236.041,144.879,235.86Z" transform="translate(-139.059 -230.162)" fill="#fff"/>
              <path id="Path_3688" data-name="Path 3688" d="M152.685,183.184c-.181.226-.317.544-.045.725.136.091.408-.045.5-.226.091-.226.045-.272-.136-.045-.227.272-.5.045-.227-.362C152.956,183,152.821,182.957,152.685,183.184Z" transform="translate(-146.502 -181.155)" fill="#fff"/>
              <path id="Path_3689" data-name="Path 3689" d="M138.325,153.4a2.39,2.39,0,0,0,1.178-.951c.181.045.227-.091.136-.226a2.207,2.207,0,0,1,.136-.317c.136-.589-.453-.634-.589-.181a.471.471,0,0,0,.091.589,3.739,3.739,0,0,1-1.087.951C138.008,153.444,138.053,153.535,138.325,153.4Zm1.087-1.585c.045-.136.136-.045.136.045a.343.343,0,0,1-.091.181C139.366,151.995,139.366,151.9,139.412,151.814Z" transform="translate(-132.912 -151.325)" fill="#fff"/>
            </g>
            <path id="Path_3691" data-name="Path 3691" d="M125.36,204.067a1.692,1.692,0,0,0-.317.272c0-.181.045-.453.045-.544,0-.136-.045-.181-.136-.045a3.605,3.605,0,0,0-.317.906,12.985,12.985,0,0,1-1.812,1.042c-.227.091-.091.181.091.136a17.829,17.829,0,0,0,1.721-.634c.045.408.181.679.544.77.679.181,1.359-.408,2.129-1.45a2.1,2.1,0,0,0,1.812,1.359c.5.091.453.045.544-.226.045-.226.136-.272-.272-.362-.5-.181-.679-.544-.181-.77a8.315,8.315,0,0,1,1.631-.5c.317-.045.408-.045.5-.317.091-.317.136-.362-.181-.317a23.273,23.273,0,0,1-2.537.045c.362-.181.861-.362,1.223-.5.136.091.181.045.136-.045a1.609,1.609,0,0,0,.408-.181c.408-.226.589-.725.136-1.042s-.815-.408-1.042-.091c-.181.272-.362.544-.091.906-.408.136-.77.272-1.132.408-.272.091-.408.136-.5.5s-.136.362.226.408a1.9,1.9,0,0,1,1.268.272c-.5.181-.861.544-.679,1.042a1.208,1.208,0,0,1-.634-.317c-.362-.362-.362-1-.5-1.721a6.323,6.323,0,0,0-.589-1.631c-.091-.272-.136-.136-.226.045a.556.556,0,0,0-.091.544,18.869,18.869,0,0,1,.589,1.9,2.691,2.691,0,0,1-1.585,1.495c-.453.091-.589-.181-.544-.408a4.06,4.06,0,0,0,.861-.679,1.594,1.594,0,0,0,.272-1.993q.34.068-.136-.544c-.227-.272-.272-.226-.408.045-.091.226-.181.408.091.5a2.98,2.98,0,0,0,.272.544C126.221,203.478,125.768,203.7,125.36,204.067Zm4.3-1.993c0-.136.045-.136.272,0s.408.181.091.226c-.091.045-.226.045-.317.091A.672.672,0,0,0,129.663,202.074Z" transform="translate(-119.537 -198.565)" fill="#fff"/>
            <g id="Group_1768" data-name="Group 1768" transform="translate(6.796 2.81)">
              <path id="Path_3692" data-name="Path 3692" d="M239.5,238.152c-.227,0-1.223.045-1.9.045l.906.77a5.133,5.133,0,0,1,.679-.181c.317-.045.408-.045.5-.317C239.774,238.152,239.82,238.107,239.5,238.152Z" transform="translate(-235.063 -236.023)" fill="#cfe7e8"/>
              <path id="Path_3693" data-name="Path 3693" d="M192.8,200.8l.091.091C192.891,200.8,192.845,200.8,192.8,200.8Z" transform="translate(-192.8 -200.8)" fill="#cfe7e8"/>
              <path id="Path_3694" data-name="Path 3694" d="M225.3,203.989c.272-.136.589-.226.815-.317.136.091.181.045.136-.045a1.609,1.609,0,0,0,.408-.181c.408-.226.589-.725.136-1.042s-.815-.408-1.042-.091c-.181.272-.362.544-.091.906a4.832,4.832,0,0,0-.861.317Zm1-1.132c.226.136.408.181.091.227-.091.045-.226.045-.317.091a.8.8,0,0,1-.045-.272C225.978,202.72,226.068,202.72,226.295,202.856Z" transform="translate(-222.988 -202.041)" fill="#cfe7e8"/>
            </g>
            <g id="Group_1769" data-name="Group 1769" transform="translate(3.972)">
              <path id="Path_3696" data-name="Path 3696" d="M173.588,150.559c.136-.317.227-.634.317-.861s.181-.181.136.045c-.045.408-.045,1.042.362,1.314.408.226,1.042-.181,1.268-.634.679.861,1.268.453,1.314-.362a3.257,3.257,0,0,0-.181-1c-.091-.181,0-.181.091-.091s.272.181.181-.136a1.458,1.458,0,0,0-.362-.589c-.136-.136-.181-.045-.226.045a.6.6,0,0,1-.136.226c-.091.091-.045.136,0,.272.272.634.5,1.585.091,1.676-.362.091-.589-.725-.589-1.087a3.693,3.693,0,0,0-.181-1.132c-.091-.272-.136-.272-.227-.136-.045.091-.045.181-.136.272-.045.091,0,.136.045.317.226,1.042.181,1.495-.272,1.767s-.725,0-.725-.317a7.012,7.012,0,0,1,.045-1c.045-.272.091-.362,0-.5s-.181-.091-.317.091a6.546,6.546,0,0,0-.679,1.4c-.091.317-.317.226-.453-.045a2.13,2.13,0,0,1-.091-1.178c.045-.226.045-.317-.091-.091a1.669,1.669,0,0,0,.272,1.812C173.271,151.057,173.452,150.876,173.588,150.559Z" transform="translate(-172.627 -148.024)" fill="#cfe7e8"/>
              <path id="Path_3697" data-name="Path 3697" d="M207.849,153.868c0,.136,0,.317.091.045a1.816,1.816,0,0,0-.045-.861c-.091-.226-.136-.272-.226-.181s-.091.136,0,.226A1.212,1.212,0,0,1,207.849,153.868Z" transform="translate(-205.62 -152.555)" fill="#cfe7e8"/>
              <path id="Path_3698" data-name="Path 3698" d="M217.183,205.428c0,.362-.091.362-.227,0-.045-.136-.091-.136-.136.045,0,.317-.136.362-.226.045-.045-.136-.045-.272-.091-.045a.527.527,0,0,0,.091.453c.091.091.226.091.272-.045s.091-.136.181-.045.453,0,.272-.5C217.229,205.156,217.183,205.2,217.183,205.428Z" transform="translate(-214.003 -201.987)" fill="#cfe7e8"/>
              <path id="Path_3699" data-name="Path 3699" d="M292.171,151.5a.6.6,0,0,1,.227.589c-.045.226,0,.362.136.045a1.039,1.039,0,0,0-.091-.906c-.136-.226-.181-.136-.272-.045C292.08,151.322,292.035,151.458,292.171,151.5Z" transform="translate(-285.321 -150.916)" fill="#cfe7e8"/>
              <path id="Path_3700" data-name="Path 3700" d="M251.291,150.289c0,.136.045.226.226.272.362.5.77,1.042,1.132,1.54.045.453.136.906.181,1.314a11.4,11.4,0,0,1,.136,2.673c-.091.408,0,.544.181-.045a4.311,4.311,0,0,0,.045-2.038c-.045-.362-.045-.77-.091-1.223a16.823,16.823,0,0,1,1.4,2.491c.136.362.272.408.136-.045a11.378,11.378,0,0,0-1.631-3.08,8.034,8.034,0,0,1-.045-1c.136.136.226.045.181-.136a8.812,8.812,0,0,0-.362-1c-.045-.181-.226-.181-.317.045-.091.272-.091.317,0,.5a6.98,6.98,0,0,0,.091.861,8.006,8.006,0,0,0-.544-.77c.226.091.408.045.181-.226-.226-.227-.544-.5-.725-.679s-.272-.045-.272.091C251.291,150.062,251.336,150.153,251.291,150.289Z" transform="translate(-246.751 -149.565)" fill="#cfe7e8"/>
              <path id="Path_3701" data-name="Path 3701" d="M293.872,178.959c-.045.226-.136.136-.181-.045-.045-.091-.091-.045-.091.136.045.181.091.317.227.181.091-.091.091-.091.227,0,.091.091.181,0,.226-.045a.842.842,0,0,0,0-.362c-.045-.226-.091-.091-.136.091s-.136.226-.181,0C293.962,178.733,293.872,178.778,293.872,178.959Z" transform="translate(-286.75 -176.967)" fill="#cfe7e8"/>
              <path id="Path_3702" data-name="Path 3702" d="M287.457,157.157c.045.815.136,1.178-.362,1.767a2.352,2.352,0,0,1-1.132.815c-.317.091-.408.226.045.181.679-.045.77-.045,1.359-.725.317-.362.453-.815.453-1.9-.045-1.9-.272-2.718-.272-3.76.091.091.227.091.181-.091a4.245,4.245,0,0,1-.181-.725c-.091-.226-.136-.317-.226-.181s-.181.181-.226.272a.345.345,0,0,0,0,.362C287.366,155.39,287.411,156.341,287.457,157.157Z" transform="translate(-279.293 -152.22)" fill="#cfe7e8"/>
              <path id="Path_3703" data-name="Path 3703" d="M327.661,157.214a3.2,3.2,0,0,1,0,1.314c-.045.136.045.226.136,0a2.8,2.8,0,0,0,.091-1.9c-.045-.679-.317-2.446-.362-3.171l.045.045c.181.091.408.181.272-.091a5.4,5.4,0,0,1-.362-.906c-.091-.272-.136-.272-.272-.045-.272.362-.091.725,0,1.178C327.39,155.176,327.616,156.761,327.661,157.214Z" transform="translate(-318.32 -152.051)" fill="#cfe7e8"/>
              <path id="Path_3704" data-name="Path 3704" d="M350.626,184.589a3.377,3.377,0,0,1,.317.544c.091.226.181.045.181-.091a3.4,3.4,0,0,1,0-.679c.091-.226.227.091.272-.045.045-.091-.045-.136-.091-.226-.045-.136-.091-.091-.181-.045a.414.414,0,0,0-.136.226v.5c0,.181-.045.181-.091.091a2.035,2.035,0,0,0-.272-.544.127.127,0,0,0-.227.091v.226C350.4,184.725,350.581,184.725,350.626,184.589Z" transform="translate(-340.334 -181.963)" fill="#cfe7e8"/>
              <path id="Path_3705" data-name="Path 3705" d="M352.8,209.051c0,.136.181-.045.317-.136s.544-.362.725-.453.136-.136.091-.317c0-.181-.136-.045-.272.091s-.544.408-.679.544S352.8,208.96,352.8,209.051Z" transform="translate(-342.598 -204.658)" fill="#cfe7e8"/>
              <path id="Path_3706" data-name="Path 3706" d="M328.477,156.436a2.209,2.209,0,0,1-.181-1.042c0-.272-.045-.5-.136-.045-.272,1.087-.091,1.314.181,1.54.362.317.5.362.679.045.362-.544.5-1,.679-1.268.181-.226.181-.045.272.045a1,1,0,0,0,.725.408c.317.045.861-.226.815-1.223-.045-.634-.091-1.45-.136-2.355.317.408.544.77.77,1.087a10.648,10.648,0,0,1,.136,1.54c-.045.5.091.5.181,0a4.53,4.53,0,0,0,0-1.132,8.331,8.331,0,0,1,.77,1.132c.181.317.272.544.227-.045,0-.226-.091-.408-.362-.815-.272-.362-.5-.725-.725-1.087-.091-.861-.181-1.812-.181-2.31.136.091.226,0,.136-.181a6.877,6.877,0,0,0-.272-.906c-.091-.181-.181-.181-.272.045-.091.181-.181.272-.136.408a18.462,18.462,0,0,0,.272,2.4c-.227-.317-.453-.634-.634-.906,0-.317-.045-.634-.045-.951.136.091.181.091.136-.136a6.047,6.047,0,0,0-.317-.815c-.091-.181-.136-.181-.226-.045a.548.548,0,0,0-.045.634c0,.226.045.408.045.634a4.744,4.744,0,0,0-.362-.5c.136.045.226-.045.091-.181s-.408-.362-.544-.5c-.136-.181-.227-.136-.227,0v.408a.709.709,0,0,0,.136.453c.317.408.679.815.951,1.223.136,1.449.181,2.4.181,2.99,0,.362-.136.544-.317.589s-.362-.045-.544-.317c-.317-.453-.453-.362-.679.045s-.408.725-.544,1C328.885,156.572,328.658,156.8,328.477,156.436Z" transform="translate(-319.227 -149.597)" fill="#cfe7e8"/>
              <path id="Path_3707" data-name="Path 3707" d="M408.729,160.842c0,.272.091.226.136,0a1.759,1.759,0,0,0-.091-.951c-.136-.317-.181-.181-.227-.091-.091.136-.091.181.045.317A2.577,2.577,0,0,1,408.729,160.842Z" transform="translate(-395.13 -159.031)" fill="#cfe7e8"/>
              <path id="Path_3708" data-name="Path 3708" d="M402.6,154.594c-.091-1.9-.317-2.718-.272-3.443q.272.2.136-.136c-.091-.226-.227-.5-.317-.77-.091-.226-.136-.181-.272,0a.383.383,0,0,0-.091.408c.272,2.31.408,3.533.453,4.258a2.224,2.224,0,0,1-1.178,2.265c-.317.227-.679.453.091.272C401.876,157.221,402.691,156.723,402.6,154.594Z" transform="translate(-387.779 -149.975)" fill="#cfe7e8"/>
              <path id="Path_3709" data-name="Path 3709" d="M389.04,262.993c-.136.181.181.272.226.136.091.136,0,.362-.136.5-.226.181-.091.227.045.091.136-.091.5-.5.272-.77A.287.287,0,0,0,389.04,262.993Z" transform="translate(-376.755 -256.381)" fill="#cfe7e8"/>
            </g>
            <path id="Path_3710" data-name="Path 3710" d="M109.389,312.446c-.476,0-.915,0-1.391.045v-.181c.146-.227.11-.227,0-.453-.037-.091-.073-.181-.183,0s-.11.227.037.453v.181c-3.623.045-7.612,0-11.052-.045.366.77,1.61.725,2.745.725,1.025,0,4.1,0,8.27-.136v.226c-.146.227-.11.227,0,.453.11.181.146.091.183,0a.158.158,0,0,0,.037-.091h.549c0,.091.11.136.146.136s.146-.045.146-.136h.622c.073.136.146.181.256.181.22,0,.329-.317.293-.725C110.011,312.491,109.828,312.4,109.389,312.446Zm-.512.906c0-.091-.11-.136-.146-.136s-.146.045-.146.136h-.549c0-.045-.037-.091-.11-.181v-.226c.476,0,.988-.045,1.5-.045a1.538,1.538,0,0,0-.037.408Z" transform="translate(-93.969 -303.403)" fill="#fff"/>
            <path id="Path_3711" data-name="Path 3711" d="M337.934,312.446c-.589,0-1.132,0-1.721.045v-.181c.181-.227.136-.227,0-.453-.045-.091-.091-.181-.227,0s-.136.227.045.453v.181h-.045l.634.544c.453,0,.951-.045,1.4-.045a1.254,1.254,0,0,0-.045.408H337.3c0-.091-.136-.136-.181-.136s-.136.045-.136.091l.317.272v-.045h.77a.342.342,0,0,0,.317.181c.272,0,.408-.317.362-.725C338.7,312.491,338.477,312.4,337.934,312.446Z" transform="translate(-321.898 -303.397)" fill="#cfe7e8"/>
          </g>
        </g>
      </g>
    </g>
  </g>
</svg>
